<svg width="120" height="120" viewBox="0 0 120 120" fill="none" xmlns="http://www.w3.org/2000/svg"><g clip-path="url(#clip0_2031_5468)"><path d="M0 24C0 10.7452 10.7452 0 24 0H96C109.255 0 120 10.7452 120 24V96C120 109.255 109.255 120 96 120H24C10.7452 120 0 109.255 0 96V24Z" fill="#F2E9E3"/><path d="M45 26H87C92.5228 26 97 30.4772 97 36V84C97 89.5228 92.5228 94 87 94H45V26Z" fill="url(#paint0_linear_2031_5468)"/><path d="M23 26H40C45.5228 26 50 30.4772 50 36V84C50 89.5228 45.5228 94 40 94H23V26Z" fill="url(#paint1_linear_2031_5468)"/></g><defs><linearGradient id="paint0_linear_2031_5468" x1="97" y1="60" x2="45" y2="60" gradientUnits="userSpaceOnUse"><stop stop-color="#FF1800"/><stop offset="0.572917" stop-color="#FC5800"/><stop offset="0.880208" stop-color="#FC5800" stop-opacity="0"/></linearGradient><linearGradient id="paint1_linear_2031_5468" x1="50" y1="60" x2="23" y2="60" gradientUnits="userSpaceOnUse"><stop stop-color="#FF1800"/><stop offset="0.572917" stop-color="#FC5800"/><stop offset="0.880208" stop-color="#FC5800" stop-opacity="0"/></linearGradient><clipPath id="clip0_2031_5468"><rect width="120" height="120" fill="white"/></clipPath></defs></svg>