<svg fill="#F62B54" role="img" viewBox="0 0 24 24" xmlns="http://www.w3.org/2000/svg"><title>Monday.com</title><path d="M3.896 16.915c-.908 0-1.804-.476-2.289-1.32-.733-1.265-.296-2.88.97-3.614l9.19-5.315c1.265-.731 2.881-.296 3.613.97.732 1.265.296 2.88-.97 3.614l-9.19 5.315a2.633 2.633 0 0 1-1.324.35zm14.378 0c-.908 0-1.804-.476-2.289-1.32-.732-1.265-.296-2.88.97-3.614l9.19-5.315c1.265-.731 2.881-.296 3.613.97.732 1.265.296 2.88-.97 3.614l-9.19 5.315a2.633 2.633 0 0 1-1.324.35zm-7.19 5.44c-.94 0-1.87-.5-2.358-1.387-.734-1.293-.28-2.93 1.014-3.664l.003-.002c1.293-.734 2.93-.28 3.664 1.014.734 1.293.28 2.93-1.014 3.664A2.659 2.659 0 0 1 11.084 22.355zM22.063 11.473a2.643 2.643 0 0 1-1.323-.35L11.55 5.808c-1.265-.732-1.703-2.347-.97-3.613.731-1.265 2.347-1.703 3.613-.97l9.19 5.314c1.265.732 1.703 2.348.97 3.613-.485.844-1.38 1.32-2.289 1.32z"/></svg>